<?xml version="1.0" encoding="UTF-8" standalone="no"?>
<svg width="40.2167mm" height="30.3389mm"
 viewBox="0 0 114 86"
 xmlns="http://www.w3.org/2000/svg" xmlns:xlink="http://www.w3.org/1999/xlink"  version="1.2" baseProfile="tiny">
<title>Qt SVG Document</title>
<desc>MATLAB, The MathWorks, Inc. Version 24.2.0.2863752 R2024b Update 5</desc>
<defs>
</defs>
<g fill="none" stroke="black" stroke-width="1" fill-rule="evenodd" stroke-linecap="square" stroke-linejoin="bevel" >

<g fill="#ffffff" fill-opacity="1" stroke="none" transform="matrix(0.75,0,0,0.75,0,0)"
font-family=".AppleSystemUIFont" font-size="13" font-weight="400" font-style="normal" 
>
<path vector-effect="none" fill-rule="evenodd" d="M0,0 L153,0 L153,115 L0,115 L0,0"/>
</g>

<g fill="#ffffff" fill-opacity="1" stroke="none" transform="matrix(7.5e-05,0,0,7.5e-05,0,0)"
font-family=".AppleSystemUIFont" font-size="13" font-weight="400" font-style="normal" 
>
<path vector-effect="none" fill-rule="evenodd" d="M280335,90107 L280335,871043 L1.38166e+06,871043 L1.38166e+06,90107 L280335,90107"/>
</g>

<g fill="#212121" fill-opacity="1" stroke="none" transform="matrix(0.75,0,0,0.75,21.0747,83.2392)"
font-family=".AppleSystemUIFont" font-size="13" font-weight="400" font-style="normal" 
>
<path vector-effect="none" fill-rule="evenodd" d="M0.864746,0 L0.864746,-7.87402 L4.35596,-7.87402 C5.05778,-7.87402 5.59131,-7.8033 5.95654,-7.66187 C6.32178,-7.52043 6.61361,-7.27067 6.83203,-6.9126 C7.05046,-6.55452 7.15967,-6.15885 7.15967,-5.72559 C7.15967,-5.16699 6.97884,-4.69613 6.61719,-4.31299 C6.25553,-3.92985 5.69694,-3.68636 4.94141,-3.58252 C5.21712,-3.45003 5.4266,-3.31934 5.56982,-3.19043 C5.87419,-2.91113 6.16243,-2.56201 6.43457,-2.14307 L7.8042,0 L6.49365,0 L5.45166,-1.63818 C5.1473,-2.11084 4.89665,-2.47249 4.69971,-2.72314 C4.50277,-2.9738 4.32642,-3.14925 4.17065,-3.24951 C4.01489,-3.34977 3.85645,-3.4196 3.69531,-3.45898 C3.57715,-3.48405 3.38379,-3.49658 3.11523,-3.49658 L1.90674,-3.49658 L1.90674,0 L0.864746,0 M1.90674,-4.39893 L4.14648,-4.39893 C4.62272,-4.39893 4.99512,-4.44816 5.26367,-4.54663 C5.53223,-4.6451 5.73633,-4.80265 5.87598,-5.01929 C6.01563,-5.23592 6.08545,-5.47135 6.08545,-5.72559 C6.08545,-6.09798 5.95028,-6.40413 5.67993,-6.64404 C5.40959,-6.88395 4.98258,-7.00391 4.39893,-7.00391 L1.90674,-7.00391 L1.90674,-4.39893 M12.5674,-1.83691 L13.5664,-1.71338 C13.4089,-1.12972 13.117,-0.676758 12.6909,-0.354492 C12.2648,-0.0322266 11.7205,0.128906 11.0581,0.128906 C10.2238,0.128906 9.56226,-0.128011 9.07349,-0.641846 C8.58472,-1.15568 8.34033,-1.8763 8.34033,-2.80371 C8.34033,-3.76335 8.5874,-4.50814 9.08154,-5.03809 C9.57568,-5.56803 10.2166,-5.83301 11.0044,-5.83301 C11.7671,-5.83301 12.3901,-5.5734 12.8735,-5.0542 C13.3569,-4.53499 13.5986,-3.80452 13.5986,-2.86279 C13.5986,-2.8055 13.5968,-2.71956 13.5933,-2.60498 L9.33936,-2.60498 C9.37516,-1.97835 9.55241,-1.49854 9.87109,-1.16553 C10.1898,-0.83252 10.5872,-0.666016 11.0635,-0.666016 C11.418,-0.666016 11.7205,-0.759115 11.9712,-0.945313 C12.2218,-1.13151 12.4206,-1.42871 12.5674,-1.83691 M9.39307,-3.3999 L12.5781,-3.3999 C12.5352,-3.87972 12.4134,-4.23958 12.2129,-4.47949 C11.9049,-4.85189 11.5057,-5.03809 11.0151,-5.03809 C10.5711,-5.03809 10.1978,-4.88949 9.89526,-4.59229 C9.59269,-4.29508 9.42529,-3.89762 9.39307,-3.3999 M14.3853,-1.70264 L15.3413,-1.85303 C15.395,-1.46989 15.5445,-1.17627 15.7898,-0.972168 C16.0351,-0.768066 16.3779,-0.666016 16.8184,-0.666016 C17.2624,-0.666016 17.5918,-0.756429 17.8066,-0.937256 C18.0215,-1.11808 18.1289,-1.33024 18.1289,-1.57373 C18.1289,-1.79215 18.034,-1.96403 17.8442,-2.08936 C17.7118,-2.17529 17.3823,-2.28451 16.856,-2.41699 C16.147,-2.59603 15.6555,-2.7509 15.3816,-2.88159 C15.1077,-3.01229 14.9,-3.19312 14.7585,-3.42407 C14.6171,-3.65503 14.5464,-3.91016 14.5464,-4.18945 C14.5464,-4.44368 14.6046,-4.67912 14.7209,-4.89575 C14.8373,-5.11239 14.9958,-5.29232 15.1963,-5.43555 C15.3467,-5.54655 15.5517,-5.64054 15.8113,-5.71753 C16.0709,-5.79451 16.3493,-5.83301 16.6465,-5.83301 C17.0941,-5.83301 17.4871,-5.76855 17.8254,-5.63965 C18.1638,-5.51074 18.4136,-5.33618 18.5747,-5.11597 C18.7358,-4.89575 18.8468,-4.60124 18.9077,-4.23242 L17.9624,-4.10352 C17.9194,-4.39714 17.795,-4.6263 17.5891,-4.79102 C17.3832,-4.95573 17.0923,-5.03809 16.7163,-5.03809 C16.2723,-5.03809 15.9554,-4.96468 15.7656,-4.81787 C15.5758,-4.67106 15.481,-4.49919 15.481,-4.30225 C15.481,-4.17692 15.5203,-4.06413 15.5991,-3.96387 C15.6779,-3.86003 15.8014,-3.77409 15.9697,-3.70605 C16.0664,-3.67025 16.3511,-3.58789 16.8237,-3.45898 C17.5076,-3.27637 17.9848,-3.12687 18.2551,-3.0105 C18.5255,-2.89412 18.7376,-2.72493 18.8916,-2.50293 C19.0456,-2.28092 19.1226,-2.00521 19.1226,-1.67578 C19.1226,-1.35352 19.0286,-1.05005 18.8406,-0.765381 C18.6526,-0.480713 18.3813,-0.260498 18.0269,-0.104736 C17.6724,0.0510254 17.2713,0.128906 16.8237,0.128906 C16.0825,0.128906 15.5177,-0.0250651 15.1292,-0.333008 C14.7406,-0.640951 14.4927,-1.09749 14.3853,-1.70264 M22.3828,-0.864746 L22.5225,-0.0107422 C22.2503,0.0465495 22.0068,0.0751953 21.792,0.0751953 C21.4411,0.0751953 21.1689,0.019694 20.9756,-0.0913086 C20.7822,-0.202311 20.6462,-0.348226 20.5674,-0.529053 C20.4886,-0.70988 20.4492,-1.09033 20.4492,-1.67041 L20.4492,-4.95215 L19.7402,-4.95215 L19.7402,-5.7041 L20.4492,-5.7041 L20.4492,-7.1167 L21.4106,-7.69678 L21.4106,-5.7041 L22.3828,-5.7041 L22.3828,-4.95215 L21.4106,-4.95215 L21.4106,-1.6167 C21.4106,-1.34098 21.4277,-1.16374 21.4617,-1.08496 C21.4957,-1.00618 21.5512,-0.943522 21.6282,-0.896973 C21.7052,-0.850423 21.8153,-0.827148 21.9585,-0.827148 C22.0659,-0.827148 22.2074,-0.839681 22.3828,-0.864746 M23.3242,-6.76221 L23.3242,-7.87402 L24.291,-7.87402 L24.291,-6.76221 L23.3242,-6.76221 M23.3242,0 L23.3242,-5.7041 L24.291,-5.7041 L24.291,0 L23.3242,0 M25.7563,0 L25.7563,-5.7041 L26.6265,-5.7041 L26.6265,-4.89307 C27.0454,-5.51969 27.6506,-5.83301 28.4419,-5.83301 C28.7856,-5.83301 29.1016,-5.77124 29.3899,-5.64771 C29.6781,-5.52417 29.8939,-5.36214 30.0371,-5.16162 C30.1803,-4.9611 30.2806,-4.72298 30.3379,-4.44727 C30.3737,-4.26823 30.3916,-3.95492 30.3916,-3.50732 L30.3916,0 L29.4248,0 L29.4248,-3.46973 C29.4248,-3.86361 29.3872,-4.15812 29.312,-4.35327 C29.2368,-4.54842 29.1034,-4.70418 28.9119,-4.82056 C28.7203,-4.93693 28.4956,-4.99512 28.2378,-4.99512 C27.826,-4.99512 27.4706,-4.86442 27.1716,-4.60303 C26.8726,-4.34163 26.7231,-3.8457 26.7231,-3.11523 L26.7231,0 L25.7563,0 M31.6885,0.472656 L32.6284,0.612305 C32.6678,0.902344 32.777,1.11361 32.9561,1.24609 C33.196,1.42513 33.5236,1.51465 33.939,1.51465 C34.3866,1.51465 34.7321,1.42513 34.9756,1.24609 C35.2191,1.06706 35.3838,0.816406 35.4697,0.494141 C35.5199,0.297201 35.5431,-0.116374 35.5396,-0.746582 C35.117,-0.248861 34.5907,0 33.9604,0 C33.1763,0 32.5693,-0.282878 32.1396,-0.848633 C31.71,-1.41439 31.4951,-2.09294 31.4951,-2.88428 C31.4951,-3.42855 31.5936,-3.93075 31.7905,-4.39087 C31.9875,-4.85099 32.273,-5.20638 32.6472,-5.45703 C33.0214,-5.70768 33.4609,-5.83301 33.9658,-5.83301 C34.639,-5.83301 35.194,-5.56087 35.6309,-5.0166 L35.6309,-5.7041 L36.5225,-5.7041 L36.5225,-0.773438 C36.5225,0.114583 36.432,0.743896 36.2512,1.1145 C36.0704,1.48511 35.7839,1.77783 35.3918,1.99268 C34.9998,2.20752 34.5173,2.31494 33.9443,2.31494 C33.264,2.31494 32.7144,2.16187 32.2954,1.85571 C31.8765,1.54956 31.6742,1.08854 31.6885,0.472656 M32.4888,-2.9541 C32.4888,-2.20573 32.6374,-1.65967 32.9346,-1.31592 C33.2318,-0.972168 33.6042,-0.800293 34.0518,-0.800293 C34.4958,-0.800293 34.8682,-0.971273 35.1689,-1.31323 C35.4697,-1.65519 35.6201,-2.19141 35.6201,-2.92188 C35.6201,-3.62012 35.4653,-4.14648 35.1555,-4.50098 C34.8458,-4.85547 34.4725,-5.03271 34.0356,-5.03271 C33.606,-5.03271 33.2407,-4.85815 32.9399,-4.50903 C32.6392,-4.15991 32.4888,-3.6416 32.4888,-2.9541 M41.1455,0 L41.1455,-7.87402 L44.1157,-7.87402 C44.6385,-7.87402 45.0378,-7.84896 45.3135,-7.79883 C45.7002,-7.73438 46.0243,-7.61174 46.2856,-7.43091 C46.547,-7.25008 46.7574,-6.99674 46.9167,-6.6709 C47.0761,-6.34505 47.1558,-5.98698 47.1558,-5.59668 C47.1558,-4.92708 46.9427,-4.36043 46.5166,-3.89673 C46.0905,-3.43302 45.3206,-3.20117 44.207,-3.20117 L42.1875,-3.20117 L42.1875,0 L41.1455,0 M42.1875,-4.13037 L44.2231,-4.13037 C44.8963,-4.13037 45.3743,-4.2557 45.6572,-4.50635 C45.9401,-4.757 46.0815,-5.1097 46.0815,-5.56445 C46.0815,-5.89388 45.9983,-6.17586 45.8318,-6.4104 C45.6653,-6.64494 45.446,-6.7998 45.1738,-6.875 C44.9984,-6.92155 44.6743,-6.94482 44.2017,-6.94482 L42.1875,-6.94482 L42.1875,-4.13037 M47.9902,-2.85205 C47.9902,-3.90837 48.2839,-4.69076 48.8711,-5.19922 C49.3617,-5.62174 49.9596,-5.83301 50.665,-5.83301 C51.4492,-5.83301 52.0902,-5.57609 52.5879,-5.06226 C53.0856,-4.54842 53.3345,-3.83854 53.3345,-2.93262 C53.3345,-2.19857 53.2244,-1.62118 53.0042,-1.20044 C52.7839,-0.779704 52.4635,-0.452962 52.0427,-0.220215 C51.622,0.0125326 51.1628,0.128906 50.665,0.128906 C49.8665,0.128906 49.2211,-0.127116 48.7288,-0.63916 C48.2364,-1.1512 47.9902,-1.88883 47.9902,-2.85205 M48.9839,-2.85205 C48.9839,-2.12158 49.1432,-1.57463 49.4619,-1.21118 C49.7806,-0.847738 50.1816,-0.666016 50.665,-0.666016 C51.1449,-0.666016 51.5441,-0.848633 51.8628,-1.21387 C52.1815,-1.5791 52.3408,-2.1359 52.3408,-2.88428 C52.3408,-3.58968 52.1806,-4.1241 51.8601,-4.48755 C51.5396,-4.85099 51.1413,-5.03271 50.665,-5.03271 C50.1816,-5.03271 49.7806,-4.85189 49.4619,-4.49023 C49.1432,-4.12858 48.9839,-3.58252 48.9839,-2.85205 M56.5703,-0.864746 L56.71,-0.0107422 C56.4378,0.0465495 56.1943,0.0751953 55.9795,0.0751953 C55.6286,0.0751953 55.3564,0.019694 55.1631,-0.0913086 C54.9697,-0.202311 54.8337,-0.348226 54.7549,-0.529053 C54.6761,-0.70988 54.6367,-1.09033 54.6367,-1.67041 L54.6367,-4.95215 L53.9277,-4.95215 L53.9277,-5.7041 L54.6367,-5.7041 L54.6367,-7.1167 L55.5981,-7.69678 L55.5981,-5.7041 L56.5703,-5.7041 L56.5703,-4.95215 L55.5981,-4.95215 L55.5981,-1.6167 C55.5981,-1.34098 55.6152,-1.16374 55.6492,-1.08496 C55.6832,-1.00618 55.7387,-0.943522 55.8157,-0.896973 C55.8927,-0.850423 56.0028,-0.827148 56.146,-0.827148 C56.2534,-0.827148 56.3949,-0.839681 56.5703,-0.864746 M61.4111,-1.83691 L62.4102,-1.71338 C62.2526,-1.12972 61.9608,-0.676758 61.5347,-0.354492 C61.1086,-0.0322266 60.5643,0.128906 59.9019,0.128906 C59.0675,0.128906 58.406,-0.128011 57.9172,-0.641846 C57.4285,-1.15568 57.1841,-1.8763 57.1841,-2.80371 C57.1841,-3.76335 57.4312,-4.50814 57.9253,-5.03809 C58.4194,-5.56803 59.0604,-5.83301 59.8481,-5.83301 C60.6108,-5.83301 61.2339,-5.5734 61.7173,-5.0542 C62.2007,-4.53499 62.4424,-3.80452 62.4424,-2.86279 C62.4424,-2.8055 62.4406,-2.71956 62.437,-2.60498 L58.1831,-2.60498 C58.2189,-1.97835 58.3962,-1.49854 58.7148,-1.16553 C59.0335,-0.83252 59.431,-0.666016 59.9072,-0.666016 C60.2617,-0.666016 60.5643,-0.759115 60.8149,-0.945313 C61.0656,-1.13151 61.2643,-1.42871 61.4111,-1.83691 M58.2368,-3.3999 L61.4219,-3.3999 C61.3789,-3.87972 61.2572,-4.23958 61.0566,-4.47949 C60.7487,-4.85189 60.3494,-5.03809 59.8589,-5.03809 C59.4149,-5.03809 59.0416,-4.88949 58.739,-4.59229 C58.4364,-4.29508 58.269,-3.89762 58.2368,-3.3999 M63.6157,0 L63.6157,-5.7041 L64.4858,-5.7041 L64.4858,-4.89307 C64.9048,-5.51969 65.5099,-5.83301 66.3013,-5.83301 C66.645,-5.83301 66.961,-5.77124 67.2493,-5.64771 C67.5375,-5.52417 67.7533,-5.36214 67.8965,-5.16162 C68.0397,-4.9611 68.14,-4.72298 68.1973,-4.44727 C68.2331,-4.26823 68.251,-3.95492 68.251,-3.50732 L68.251,0 L67.2842,0 L67.2842,-3.46973 C67.2842,-3.86361 67.2466,-4.15812 67.1714,-4.35327 C67.0962,-4.54842 66.9628,-4.70418 66.7712,-4.82056 C66.5797,-4.93693 66.355,-4.99512 66.0972,-4.99512 C65.6854,-4.99512 65.33,-4.86442 65.031,-4.60303 C64.732,-4.34163 64.5825,-3.8457 64.5825,-3.11523 L64.5825,0 L63.6157,0 M71.8359,-0.864746 L71.9756,-0.0107422 C71.7035,0.0465495 71.46,0.0751953 71.2451,0.0751953 C70.8942,0.0751953 70.6221,0.019694 70.4287,-0.0913086 C70.2354,-0.202311 70.0993,-0.348226 70.0205,-0.529053 C69.9417,-0.70988 69.9023,-1.09033 69.9023,-1.67041 L69.9023,-4.95215 L69.1934,-4.95215 L69.1934,-5.7041 L69.9023,-5.7041 L69.9023,-7.1167 L70.8638,-7.69678 L70.8638,-5.7041 L71.8359,-5.7041 L71.8359,-4.95215 L70.8638,-4.95215 L70.8638,-1.6167 C70.8638,-1.34098 70.8808,-1.16374 70.9148,-1.08496 C70.9488,-1.00618 71.0043,-0.943522 71.0813,-0.896973 C71.1583,-0.850423 71.2684,-0.827148 71.4116,-0.827148 C71.519,-0.827148 71.6605,-0.839681 71.8359,-0.864746 M72.7773,-6.76221 L72.7773,-7.87402 L73.7441,-7.87402 L73.7441,-6.76221 L72.7773,-6.76221 M72.7773,0 L72.7773,-5.7041 L73.7441,-5.7041 L73.7441,0 L72.7773,0 M78.9316,-0.703613 C78.5736,-0.399251 78.2289,-0.184408 77.8977,-0.059082 C77.5665,0.0662435 77.2111,0.128906 76.8315,0.128906 C76.2049,0.128906 75.7233,-0.0241699 75.3867,-0.330322 C75.0501,-0.636475 74.8818,-1.02767 74.8818,-1.50391 C74.8818,-1.7832 74.9454,-2.03833 75.0725,-2.26929 C75.1996,-2.50024 75.3661,-2.68555 75.572,-2.8252 C75.7779,-2.96484 76.0098,-3.07048 76.2676,-3.14209 C76.4574,-3.19222 76.7438,-3.24056 77.127,-3.28711 C77.9076,-3.38021 78.4823,-3.49121 78.8511,-3.62012 C78.8547,-3.7526 78.8564,-3.83675 78.8564,-3.87256 C78.8564,-4.26644 78.7651,-4.54395 78.5825,-4.70508 C78.3354,-4.9235 77.9684,-5.03271 77.4814,-5.03271 C77.0267,-5.03271 76.691,-4.95304 76.4744,-4.7937 C76.2577,-4.63436 76.0975,-4.35238 75.9937,-3.94775 L75.0483,-4.07666 C75.1343,-4.48128 75.2757,-4.80802 75.4727,-5.05688 C75.6696,-5.30575 75.9543,-5.49731 76.3267,-5.63159 C76.6991,-5.76587 77.1305,-5.83301 77.6211,-5.83301 C78.1081,-5.83301 78.5037,-5.77572 78.8081,-5.66113 C79.1125,-5.54655 79.3363,-5.40243 79.4795,-5.22876 C79.6227,-5.05509 79.723,-4.83577 79.7803,-4.5708 C79.8125,-4.40609 79.8286,-4.10889 79.8286,-3.6792 L79.8286,-2.39014 C79.8286,-1.49137 79.8492,-0.922933 79.8904,-0.684814 C79.9316,-0.446696 80.013,-0.218424 80.1348,0 L79.125,0 C79.0247,-0.200521 78.9603,-0.435059 78.9316,-0.703613 M78.8511,-2.86279 C78.5002,-2.71956 77.9738,-2.59782 77.272,-2.49756 C76.8745,-2.44027 76.5934,-2.37581 76.4287,-2.3042 C76.264,-2.23258 76.1369,-2.12785 76.0474,-1.98999 C75.9578,-1.85213 75.9131,-1.69906 75.9131,-1.53076 C75.9131,-1.27295 76.0107,-1.05811 76.2058,-0.88623 C76.401,-0.714355 76.6865,-0.628418 77.0625,-0.628418 C77.4349,-0.628418 77.7661,-0.70988 78.0562,-0.872803 C78.3462,-1.03573 78.5592,-1.25863 78.6953,-1.5415 C78.7992,-1.75993 78.8511,-2.08219 78.8511,-2.5083 L78.8511,-2.86279 M81.2974,0 L81.2974,-7.87402 L82.2642,-7.87402 L82.2642,0 L81.2974,0 M88.6509,2.31494 C88.1174,1.64176 87.6662,0.854004 87.2974,-0.0483398 C86.9285,-0.950684 86.7441,-1.88525 86.7441,-2.85205 C86.7441,-3.70426 86.882,-4.52067 87.1577,-5.30127 C87.48,-6.20719 87.9777,-7.10954 88.6509,-8.0083 L89.3438,-8.0083 C88.9105,-7.26351 88.624,-6.73177 88.4844,-6.41309 C88.266,-5.91895 88.0941,-5.40332 87.9688,-4.86621 C87.8148,-4.19661 87.7378,-3.52344 87.7378,-2.84668 C87.7378,-1.12435 88.2731,0.596191 89.3438,2.31494 L88.6509,2.31494 M90.4595,0 L90.4595,-5.7041 L91.3242,-5.7041 L91.3242,-4.90381 C91.5033,-5.18311 91.7414,-5.4078 92.0386,-5.57788 C92.3358,-5.74797 92.6742,-5.83301 93.0537,-5.83301 C93.4762,-5.83301 93.8227,-5.74528 94.093,-5.56982 C94.3634,-5.39437 94.554,-5.14909 94.665,-4.83398 C95.1162,-5.5 95.7035,-5.83301 96.4268,-5.83301 C96.9925,-5.83301 97.4276,-5.67635 97.7319,-5.36304 C98.0363,-5.04972 98.1885,-4.56722 98.1885,-3.91553 L98.1885,0 L97.2271,0 L97.2271,-3.59326 C97.2271,-3.97998 97.1957,-4.25838 97.1331,-4.42847 C97.0704,-4.59855 96.9567,-4.73551 96.792,-4.83936 C96.6273,-4.9432 96.4339,-4.99512 96.2119,-4.99512 C95.8109,-4.99512 95.4779,-4.86174 95.2129,-4.59497 C94.9479,-4.32821 94.8154,-3.9012 94.8154,-3.31396 L94.8154,0 L93.8486,0 L93.8486,-3.70605 C93.8486,-4.13574 93.7699,-4.45801 93.6123,-4.67285 C93.4548,-4.8877 93.1969,-4.99512 92.8389,-4.99512 C92.5667,-4.99512 92.3152,-4.9235 92.0842,-4.78027 C91.8533,-4.63704 91.6859,-4.42757 91.582,-4.15186 C91.4782,-3.87614 91.4263,-3.47868 91.4263,-2.95947 L91.4263,0 L90.4595,0 M101.99,0 L98.939,-7.87402 L100.067,-7.87402 L102.113,-2.15381 C102.278,-1.69548 102.416,-1.26579 102.527,-0.864746 C102.649,-1.29443 102.79,-1.72412 102.951,-2.15381 L105.078,-7.87402 L106.142,-7.87402 L103.059,0 L101.99,0 M107.578,2.31494 L106.885,2.31494 C107.955,0.596191 108.491,-1.12435 108.491,-2.84668 C108.491,-3.51986 108.414,-4.18766 108.26,-4.8501 C108.138,-5.38721 107.968,-5.90283 107.75,-6.39697 C107.61,-6.71924 107.322,-7.25635 106.885,-8.0083 L107.578,-8.0083 C108.251,-7.10954 108.749,-6.20719 109.071,-5.30127 C109.347,-4.52067 109.484,-3.70426 109.484,-2.85205 C109.484,-1.88525 109.299,-0.950684 108.928,-0.0483398 C108.558,0.854004 108.108,1.64176 107.578,2.31494 "/>
</g>

<g fill="#212121" fill-opacity="1" stroke="#212121" stroke-opacity="1" stroke-width="2.02326" stroke-linecap="butt" stroke-linejoin="round" transform="matrix(0.75,0,0,0.75,0,0)"
font-family=".AppleSystemUIFont" font-size="13" font-weight="400" font-style="normal" 
>
<polyline fill="none" vector-effect="none" points="138.166,87.1043 28.0335,87.1043 " />
<polyline fill="none" vector-effect="none" points="138.166,87.1043 138.166,86.0043 " />
<polyline fill="none" vector-effect="none" points="88.1055,87.1043 88.1055,86.0043 " />
<polyline fill="none" vector-effect="none" points="38.0456,87.1043 38.0456,86.0043 " />
</g>

<g fill="#212121" fill-opacity="1" stroke="none" transform="matrix(0.75,0,0,0.75,98.3741,73.6969)"
font-family=".AppleSystemUIFont" font-size="13" font-weight="400" font-style="normal" 
>
<path vector-effect="none" fill-rule="evenodd" d="M0.317383,-2.14844 L0.317383,-3.03223 L3.01758,-3.03223 L3.01758,-2.14844 L0.317383,-2.14844 M3.80176,-6.2207 L3.80176,-7.06543 L8.43555,-7.06543 L8.43555,-6.38184 C7.97982,-5.89681 7.52816,-5.25228 7.08057,-4.44824 C6.63298,-3.64421 6.28711,-2.81738 6.04297,-1.96777 C5.86719,-1.36882 5.75488,-0.712891 5.70605,0 L4.80273,0 C4.8125,-0.563151 4.92318,-1.24349 5.13477,-2.04102 C5.34635,-2.83854 5.6499,-3.60758 6.04541,-4.34814 C6.44092,-5.0887 6.86165,-5.71289 7.30762,-6.2207 L3.80176,-6.2207 M9.29004,-3.53027 C9.29004,-4.37663 9.37712,-5.05778 9.55127,-5.57373 C9.72542,-6.08968 9.98421,-6.48763 10.3276,-6.76758 C10.6711,-7.04753 11.1032,-7.1875 11.624,-7.1875 C12.0081,-7.1875 12.3451,-7.11019 12.6348,-6.95557 C12.9245,-6.80094 13.1637,-6.57796 13.3525,-6.28662 C13.5413,-5.99528 13.6895,-5.64046 13.7969,-5.22217 C13.9043,-4.80387 13.958,-4.23991 13.958,-3.53027 C13.958,-2.69043 13.8717,-2.01253 13.6992,-1.49658 C13.5267,-0.980632 13.2687,-0.581868 12.9253,-0.300293 C12.5819,-0.0187174 12.1481,0.12207 11.624,0.12207 C10.9339,0.12207 10.3919,-0.125326 9.99805,-0.620117 C9.52604,-1.21582 9.29004,-2.18587 9.29004,-3.53027 M10.1934,-3.53027 C10.1934,-2.35514 10.3309,-1.57308 10.606,-1.18408 C10.881,-0.795085 11.2204,-0.600586 11.624,-0.600586 C12.0277,-0.600586 12.367,-0.795898 12.6421,-1.18652 C12.9172,-1.57715 13.0547,-2.3584 13.0547,-3.53027 C13.0547,-4.70866 12.9172,-5.49154 12.6421,-5.87891 C12.367,-6.26628 12.0244,-6.45996 11.6143,-6.45996 C11.2106,-6.45996 10.8883,-6.28906 10.6475,-5.94727 C10.3447,-5.51107 10.1934,-4.7054 10.1934,-3.53027 "/>
</g>

<g fill="#212121" fill-opacity="1" stroke="none" transform="matrix(0.75,0,0,0.75,60.8292,73.6969)"
font-family=".AppleSystemUIFont" font-size="13" font-weight="400" font-style="normal" 
>
<path vector-effect="none" fill-rule="evenodd" d="M0.317383,-2.14844 L0.317383,-3.03223 L3.01758,-3.03223 L3.01758,-2.14844 L0.317383,-2.14844 M8.30371,-5.40527 L7.42969,-5.33691 C7.35156,-5.68197 7.24089,-5.93262 7.09766,-6.08887 C6.86003,-6.33952 6.56706,-6.46484 6.21875,-6.46484 C5.9388,-6.46484 5.69303,-6.38672 5.48145,-6.23047 C5.20475,-6.02865 4.98665,-5.73405 4.82715,-5.34668 C4.66764,-4.95931 4.58464,-4.40755 4.57813,-3.69141 C4.78971,-4.01367 5.0485,-4.25293 5.35449,-4.40918 C5.66048,-4.56543 5.98112,-4.64355 6.31641,-4.64355 C6.90234,-4.64355 7.4012,-4.4279 7.81299,-3.99658 C8.22477,-3.56527 8.43066,-3.00781 8.43066,-2.32422 C8.43066,-1.875 8.33382,-1.45752 8.14014,-1.07178 C7.94645,-0.686035 7.68034,-0.390625 7.3418,-0.185547 C7.00326,0.0195313 6.61914,0.12207 6.18945,0.12207 C5.45703,0.12207 4.8597,-0.147298 4.39746,-0.686035 C3.93522,-1.22477 3.7041,-2.11263 3.7041,-3.34961 C3.7041,-4.73307 3.95964,-5.73893 4.4707,-6.36719 C4.91667,-6.91406 5.51725,-7.1875 6.27246,-7.1875 C6.83561,-7.1875 7.29704,-7.02962 7.65674,-6.71387 C8.01644,-6.39811 8.2321,-5.96191 8.30371,-5.40527 M4.71484,-2.31934 C4.71484,-2.0166 4.77913,-1.72689 4.90771,-1.4502 C5.0363,-1.1735 5.21615,-0.962728 5.44727,-0.817871 C5.67839,-0.673014 5.9209,-0.600586 6.1748,-0.600586 C6.5459,-0.600586 6.86491,-0.750326 7.13184,-1.0498 C7.39876,-1.34928 7.53223,-1.75618 7.53223,-2.27051 C7.53223,-2.7653 7.40039,-3.15511 7.13672,-3.43994 C6.87305,-3.72477 6.54102,-3.86719 6.14063,-3.86719 C5.74349,-3.86719 5.40658,-3.72477 5.12988,-3.43994 C4.85319,-3.15511 4.71484,-2.78158 4.71484,-2.31934 M10.6426,-3.88184 C10.278,-4.0153 10.0078,-4.20573 9.83203,-4.45313 C9.65625,-4.70052 9.56836,-4.99674 9.56836,-5.3418 C9.56836,-5.86263 9.75553,-6.30046 10.1299,-6.65527 C10.5042,-7.01009 11.0023,-7.1875 11.624,-7.1875 C12.249,-7.1875 12.752,-7.00602 13.1328,-6.64307 C13.5137,-6.28011 13.7041,-5.83822 13.7041,-5.31738 C13.7041,-4.98535 13.617,-4.69645 13.4429,-4.45068 C13.2687,-4.20492 13.0042,-4.0153 12.6494,-3.88184 C13.0889,-3.73861 13.4233,-3.50749 13.6528,-3.18848 C13.8823,-2.86947 13.9971,-2.48861 13.9971,-2.0459 C13.9971,-1.43392 13.7806,-0.919596 13.3477,-0.50293 C12.9147,-0.086263 12.3451,0.12207 11.6387,0.12207 C10.9323,0.12207 10.3626,-0.0870768 9.92969,-0.505371 C9.49674,-0.923665 9.28027,-1.44531 9.28027,-2.07031 C9.28027,-2.53581 9.39827,-2.92562 9.63428,-3.23975 C9.87028,-3.55387 10.2064,-3.7679 10.6426,-3.88184 M10.4668,-5.37109 C10.4668,-5.03255 10.5758,-4.75586 10.7939,-4.54102 C11.012,-4.32617 11.2952,-4.21875 11.6436,-4.21875 C11.9821,-4.21875 12.2596,-4.32536 12.4761,-4.53857 C12.6925,-4.75179 12.8008,-5.01302 12.8008,-5.32227 C12.8008,-5.64453 12.6893,-5.91553 12.4663,-6.13525 C12.2433,-6.35498 11.9658,-6.46484 11.6338,-6.46484 C11.2985,-6.46484 11.0202,-6.35742 10.7988,-6.14258 C10.5775,-5.92773 10.4668,-5.67057 10.4668,-5.37109 M10.1836,-2.06543 C10.1836,-1.81478 10.243,-1.57227 10.3618,-1.33789 C10.4806,-1.10352 10.6572,-0.922038 10.8916,-0.793457 C11.126,-0.664876 11.3783,-0.600586 11.6484,-0.600586 C12.0684,-0.600586 12.415,-0.735677 12.6885,-1.00586 C12.9619,-1.27604 13.0986,-1.61947 13.0986,-2.03613 C13.0986,-2.45931 12.9578,-2.80924 12.6763,-3.08594 C12.3947,-3.36263 12.0423,-3.50098 11.6191,-3.50098 C11.2057,-3.50098 10.8631,-3.36426 10.5913,-3.09082 C10.3195,-2.81738 10.1836,-2.47559 10.1836,-2.06543 "/>
</g>

<g fill="#212121" fill-opacity="1" stroke="none" transform="matrix(0.75,0,0,0.75,23.2842,73.6969)"
font-family=".AppleSystemUIFont" font-size="13" font-weight="400" font-style="normal" 
>
<path vector-effect="none" fill-rule="evenodd" d="M0.317383,-2.14844 L0.317383,-3.03223 L3.01758,-3.03223 L3.01758,-2.14844 L0.317383,-2.14844 M8.30371,-5.40527 L7.42969,-5.33691 C7.35156,-5.68197 7.24089,-5.93262 7.09766,-6.08887 C6.86003,-6.33952 6.56706,-6.46484 6.21875,-6.46484 C5.9388,-6.46484 5.69303,-6.38672 5.48145,-6.23047 C5.20475,-6.02865 4.98665,-5.73405 4.82715,-5.34668 C4.66764,-4.95931 4.58464,-4.40755 4.57813,-3.69141 C4.78971,-4.01367 5.0485,-4.25293 5.35449,-4.40918 C5.66048,-4.56543 5.98112,-4.64355 6.31641,-4.64355 C6.90234,-4.64355 7.4012,-4.4279 7.81299,-3.99658 C8.22477,-3.56527 8.43066,-3.00781 8.43066,-2.32422 C8.43066,-1.875 8.33382,-1.45752 8.14014,-1.07178 C7.94645,-0.686035 7.68034,-0.390625 7.3418,-0.185547 C7.00326,0.0195313 6.61914,0.12207 6.18945,0.12207 C5.45703,0.12207 4.8597,-0.147298 4.39746,-0.686035 C3.93522,-1.22477 3.7041,-2.11263 3.7041,-3.34961 C3.7041,-4.73307 3.95964,-5.73893 4.4707,-6.36719 C4.91667,-6.91406 5.51725,-7.1875 6.27246,-7.1875 C6.83561,-7.1875 7.29704,-7.02962 7.65674,-6.71387 C8.01644,-6.39811 8.2321,-5.96191 8.30371,-5.40527 M4.71484,-2.31934 C4.71484,-2.0166 4.77913,-1.72689 4.90771,-1.4502 C5.0363,-1.1735 5.21615,-0.962728 5.44727,-0.817871 C5.67839,-0.673014 5.9209,-0.600586 6.1748,-0.600586 C6.5459,-0.600586 6.86491,-0.750326 7.13184,-1.0498 C7.39876,-1.34928 7.53223,-1.75618 7.53223,-2.27051 C7.53223,-2.7653 7.40039,-3.15511 7.13672,-3.43994 C6.87305,-3.72477 6.54102,-3.86719 6.14063,-3.86719 C5.74349,-3.86719 5.40658,-3.72477 5.12988,-3.43994 C4.85319,-3.15511 4.71484,-2.78158 4.71484,-2.31934 M13.8506,-5.40527 L12.9766,-5.33691 C12.8984,-5.68197 12.7878,-5.93262 12.6445,-6.08887 C12.4069,-6.33952 12.1139,-6.46484 11.7656,-6.46484 C11.4857,-6.46484 11.2399,-6.38672 11.0283,-6.23047 C10.7516,-6.02865 10.5335,-5.73405 10.374,-5.34668 C10.2145,-4.95931 10.1315,-4.40755 10.125,-3.69141 C10.3366,-4.01367 10.5954,-4.25293 10.9014,-4.40918 C11.2074,-4.56543 11.528,-4.64355 11.8633,-4.64355 C12.4492,-4.64355 12.9481,-4.4279 13.3599,-3.99658 C13.7716,-3.56527 13.9775,-3.00781 13.9775,-2.32422 C13.9775,-1.875 13.8807,-1.45752 13.687,-1.07178 C13.4933,-0.686035 13.2272,-0.390625 12.8887,-0.185547 C12.5501,0.0195313 12.166,0.12207 11.7363,0.12207 C11.0039,0.12207 10.4066,-0.147298 9.94434,-0.686035 C9.4821,-1.22477 9.25098,-2.11263 9.25098,-3.34961 C9.25098,-4.73307 9.50651,-5.73893 10.0176,-6.36719 C10.4635,-6.91406 11.0641,-7.1875 11.8193,-7.1875 C12.3825,-7.1875 12.8439,-7.02962 13.2036,-6.71387 C13.5633,-6.39811 13.779,-5.96191 13.8506,-5.40527 M10.2617,-2.31934 C10.2617,-2.0166 10.326,-1.72689 10.4546,-1.4502 C10.5832,-1.1735 10.763,-0.962728 10.9941,-0.817871 C11.2253,-0.673014 11.4678,-0.600586 11.7217,-0.600586 C12.0928,-0.600586 12.4118,-0.750326 12.6787,-1.0498 C12.9456,-1.34928 13.0791,-1.75618 13.0791,-2.27051 C13.0791,-2.7653 12.9473,-3.15511 12.6836,-3.43994 C12.4199,-3.72477 12.0879,-3.86719 11.6875,-3.86719 C11.2904,-3.86719 10.9535,-3.72477 10.6768,-3.43994 C10.4001,-3.15511 10.2617,-2.78158 10.2617,-2.31934 "/>
</g>

<g fill="#212121" fill-opacity="1" stroke="none" transform="matrix(0,-0.75,0.75,0,9.75,69.75)"
font-family=".AppleSystemUIFont" font-size="13" font-weight="400" font-style="normal" 
>
<path vector-effect="none" fill-rule="evenodd" d="M0.596191,0 C0.535319,0 0.504883,-0.0286458 0.504883,-0.0859375 C0.508464,-0.093099 0.511149,-0.0984701 0.512939,-0.102051 C0.51473,-0.105632 0.515625,-0.112793 0.515625,-0.123535 L4.30225,-7.75586 C4.33447,-7.83464 4.40072,-7.87402 4.50098,-7.87402 L4.65137,-7.87402 C4.75163,-7.87402 4.81787,-7.83464 4.8501,-7.75586 L8.63672,-0.123535 C8.6403,-0.116374 8.64299,-0.110107 8.64478,-0.104736 C8.64657,-0.0993652 8.64746,-0.093099 8.64746,-0.0859375 C8.64746,-0.0286458 8.61702,0 8.55615,0 L0.596191,0 M1.32129,-0.880859 L7.1167,-0.880859 L4.22168,-6.71924 L1.32129,-0.880859"/>
</g>

<g fill="#212121" fill-opacity="1" stroke="none" transform="matrix(0,-0.75,0.75,0,9.75,63)"
font-family=".AppleSystemUIFont" font-size="13" font-weight="400" font-style="normal" 
>
<path vector-effect="none" fill-rule="evenodd" d="M3.94922,0 L3.94922,-7.87402 L9.26123,-7.87402 L9.26123,-6.94482 L4.99121,-6.94482 L4.99121,-4.50635 L8.68652,-4.50635 L8.68652,-3.57715 L4.99121,-3.57715 L4.99121,0 L3.94922,0 M10.4961,-6.76221 L10.4961,-7.87402 L11.4629,-7.87402 L11.4629,-6.76221 L10.4961,-6.76221 M10.4961,0 L10.4961,-5.7041 L11.4629,-5.7041 L11.4629,0 L10.4961,0 M12.9175,0 L12.9175,-5.7041 L13.7876,-5.7041 L13.7876,-4.83936 C14.0096,-5.24398 14.2146,-5.51074 14.4026,-5.63965 C14.5906,-5.76855 14.7974,-5.83301 15.0229,-5.83301 C15.3488,-5.83301 15.68,-5.72917 16.0166,-5.52148 L15.6836,-4.62451 C15.4473,-4.76416 15.2109,-4.83398 14.9746,-4.83398 C14.7633,-4.83398 14.5736,-4.77043 14.4053,-4.64331 C14.237,-4.51619 14.117,-4.33984 14.0454,-4.11426 C13.938,-3.77051 13.8843,-3.39453 13.8843,-2.98633 L13.8843,0 L12.9175,0 M16.5898,-6.76221 L16.5898,-7.87402 L17.5566,-7.87402 L17.5566,-6.76221 L16.5898,-6.76221 M16.5898,0 L16.5898,-5.7041 L17.5566,-5.7041 L17.5566,0 L16.5898,0 M19.022,0 L19.022,-5.7041 L19.8921,-5.7041 L19.8921,-4.89307 C20.311,-5.51969 20.9162,-5.83301 21.7075,-5.83301 C22.0513,-5.83301 22.3673,-5.77124 22.6555,-5.64771 C22.9438,-5.52417 23.1595,-5.36214 23.3027,-5.16162 C23.446,-4.9611 23.5462,-4.72298 23.6035,-4.44727 C23.6393,-4.26823 23.6572,-3.95492 23.6572,-3.50732 L23.6572,0 L22.6904,0 L22.6904,-3.46973 C22.6904,-3.86361 22.6528,-4.15812 22.5776,-4.35327 C22.5024,-4.54842 22.3691,-4.70418 22.1775,-4.82056 C21.9859,-4.93693 21.7612,-4.99512 21.5034,-4.99512 C21.0916,-4.99512 20.7362,-4.86442 20.4373,-4.60303 C20.1383,-4.34163 19.9888,-3.8457 19.9888,-3.11523 L19.9888,0 L19.022,0 M24.9541,0.472656 L25.894,0.612305 C25.9334,0.902344 26.0426,1.11361 26.2217,1.24609 C26.4616,1.42513 26.7892,1.51465 27.2046,1.51465 C27.6522,1.51465 27.9977,1.42513 28.2412,1.24609 C28.4847,1.06706 28.6494,0.816406 28.7354,0.494141 C28.7855,0.297201 28.8088,-0.116374 28.8052,-0.746582 C28.3826,-0.248861 27.8563,0 27.2261,0 C26.4419,0 25.835,-0.282878 25.4053,-0.848633 C24.9756,-1.41439 24.7607,-2.09294 24.7607,-2.88428 C24.7607,-3.42855 24.8592,-3.93075 25.0562,-4.39087 C25.2531,-4.85099 25.5387,-5.20638 25.9128,-5.45703 C26.287,-5.70768 26.7266,-5.83301 27.2314,-5.83301 C27.9046,-5.83301 28.4596,-5.56087 28.8965,-5.0166 L28.8965,-5.7041 L29.7881,-5.7041 L29.7881,-0.773438 C29.7881,0.114583 29.6977,0.743896 29.5168,1.1145 C29.336,1.48511 29.0496,1.77783 28.6575,1.99268 C28.2654,2.20752 27.7829,2.31494 27.21,2.31494 C26.5296,2.31494 25.98,2.16187 25.561,1.85571 C25.1421,1.54956 24.9398,1.08854 24.9541,0.472656 M25.7544,-2.9541 C25.7544,-2.20573 25.903,-1.65967 26.2002,-1.31592 C26.4974,-0.972168 26.8698,-0.800293 27.3174,-0.800293 C27.7614,-0.800293 28.1338,-0.971273 28.4346,-1.31323 C28.7354,-1.65519 28.8857,-2.19141 28.8857,-2.92188 C28.8857,-3.62012 28.7309,-4.14648 28.4211,-4.50098 C28.1114,-4.85547 27.7381,-5.03271 27.3013,-5.03271 C26.8716,-5.03271 26.5063,-4.85815 26.2056,-4.50903 C25.9048,-4.15991 25.7544,-3.6416 25.7544,-2.9541 M34.4272,0 L34.4272,-7.87402 L37.9185,-7.87402 C38.6203,-7.87402 39.1538,-7.8033 39.519,-7.66187 C39.8843,-7.52043 40.1761,-7.27067 40.3945,-6.9126 C40.613,-6.55452 40.7222,-6.15885 40.7222,-5.72559 C40.7222,-5.16699 40.5413,-4.69613 40.1797,-4.31299 C39.818,-3.92985 39.2594,-3.68636 38.5039,-3.58252 C38.7796,-3.45003 38.9891,-3.31934 39.1323,-3.19043 C39.4367,-2.91113 39.7249,-2.56201 39.9971,-2.14307 L41.3667,0 L40.0562,0 L39.0142,-1.63818 C38.7098,-2.11084 38.4591,-2.47249 38.2622,-2.72314 C38.0653,-2.9738 37.8889,-3.14925 37.7332,-3.24951 C37.5774,-3.34977 37.4189,-3.4196 37.2578,-3.45898 C37.1396,-3.48405 36.9463,-3.49658 36.6777,-3.49658 L35.4692,-3.49658 L35.4692,0 L34.4272,0 M35.4692,-4.39893 L37.709,-4.39893 C38.1852,-4.39893 38.5576,-4.44816 38.8262,-4.54663 C39.0947,-4.6451 39.2988,-4.80265 39.4385,-5.01929 C39.5781,-5.23592 39.6479,-5.47135 39.6479,-5.72559 C39.6479,-6.09798 39.5128,-6.40413 39.2424,-6.64404 C38.9721,-6.88395 38.5451,-7.00391 37.9614,-7.00391 L35.4692,-7.00391 L35.4692,-4.39893 M45.9473,-0.703613 C45.5892,-0.399251 45.2445,-0.184408 44.9133,-0.059082 C44.5821,0.0662435 44.2267,0.128906 43.8472,0.128906 C43.2205,0.128906 42.7389,-0.0241699 42.4023,-0.330322 C42.0658,-0.636475 41.8975,-1.02767 41.8975,-1.50391 C41.8975,-1.7832 41.961,-2.03833 42.0881,-2.26929 C42.2153,-2.50024 42.3818,-2.68555 42.5876,-2.8252 C42.7935,-2.96484 43.0254,-3.07048 43.2832,-3.14209 C43.473,-3.19222 43.7594,-3.24056 44.1426,-3.28711 C44.9232,-3.38021 45.4979,-3.49121 45.8667,-3.62012 C45.8703,-3.7526 45.8721,-3.83675 45.8721,-3.87256 C45.8721,-4.26644 45.7808,-4.54395 45.5981,-4.70508 C45.3511,-4.9235 44.984,-5.03271 44.4971,-5.03271 C44.0423,-5.03271 43.7066,-4.95304 43.49,-4.7937 C43.2734,-4.63436 43.1131,-4.35238 43.0093,-3.94775 L42.064,-4.07666 C42.1499,-4.48128 42.2913,-4.80802 42.4883,-5.05688 C42.6852,-5.30575 42.9699,-5.49731 43.3423,-5.63159 C43.7147,-5.76587 44.1462,-5.83301 44.6367,-5.83301 C45.1237,-5.83301 45.5194,-5.77572 45.8237,-5.66113 C46.1281,-5.54655 46.3519,-5.40243 46.4951,-5.22876 C46.6383,-5.05509 46.7386,-4.83577 46.7959,-4.5708 C46.8281,-4.40609 46.8442,-4.10889 46.8442,-3.6792 L46.8442,-2.39014 C46.8442,-1.49137 46.8648,-0.922933 46.906,-0.684814 C46.9472,-0.446696 47.0286,-0.218424 47.1504,0 L46.1406,0 C46.0404,-0.200521 45.9759,-0.435059 45.9473,-0.703613 M45.8667,-2.86279 C45.5158,-2.71956 44.9894,-2.59782 44.2876,-2.49756 C43.8901,-2.44027 43.609,-2.37581 43.4443,-2.3042 C43.2796,-2.23258 43.1525,-2.12785 43.063,-1.98999 C42.9735,-1.85213 42.9287,-1.69906 42.9287,-1.53076 C42.9287,-1.27295 43.0263,-1.05811 43.2214,-0.88623 C43.4166,-0.714355 43.7021,-0.628418 44.0781,-0.628418 C44.4505,-0.628418 44.7817,-0.70988 45.0718,-0.872803 C45.3618,-1.03573 45.5749,-1.25863 45.7109,-1.5415 C45.8148,-1.75993 45.8667,-2.08219 45.8667,-2.5083 L45.8667,-2.86279 M50.4453,-0.864746 L50.585,-0.0107422 C50.3128,0.0465495 50.0693,0.0751953 49.8545,0.0751953 C49.5036,0.0751953 49.2314,0.019694 49.0381,-0.0913086 C48.8447,-0.202311 48.7087,-0.348226 48.6299,-0.529053 C48.5511,-0.70988 48.5117,-1.09033 48.5117,-1.67041 L48.5117,-4.95215 L47.8027,-4.95215 L47.8027,-5.7041 L48.5117,-5.7041 L48.5117,-7.1167 L49.4731,-7.69678 L49.4731,-5.7041 L50.4453,-5.7041 L50.4453,-4.95215 L49.4731,-4.95215 L49.4731,-1.6167 C49.4731,-1.34098 49.4902,-1.16374 49.5242,-1.08496 C49.5582,-1.00618 49.6137,-0.943522 49.6907,-0.896973 C49.7677,-0.850423 49.8778,-0.827148 50.021,-0.827148 C50.1284,-0.827148 50.2699,-0.839681 50.4453,-0.864746 M55.2861,-1.83691 L56.2852,-1.71338 C56.1276,-1.12972 55.8358,-0.676758 55.4097,-0.354492 C54.9836,-0.0322266 54.4393,0.128906 53.7769,0.128906 C52.9425,0.128906 52.281,-0.128011 51.7922,-0.641846 C51.3035,-1.15568 51.0591,-1.8763 51.0591,-2.80371 C51.0591,-3.76335 51.3062,-4.50814 51.8003,-5.03809 C52.2944,-5.56803 52.9354,-5.83301 53.7231,-5.83301 C54.4858,-5.83301 55.1089,-5.5734 55.5923,-5.0542 C56.0757,-4.53499 56.3174,-3.80452 56.3174,-2.86279 C56.3174,-2.8055 56.3156,-2.71956 56.312,-2.60498 L52.0581,-2.60498 C52.0939,-1.97835 52.2712,-1.49854 52.5898,-1.16553 C52.9085,-0.83252 53.306,-0.666016 53.7822,-0.666016 C54.1367,-0.666016 54.4393,-0.759115 54.6899,-0.945313 C54.9406,-1.13151 55.1393,-1.42871 55.2861,-1.83691 M52.1118,-3.3999 L55.2969,-3.3999 C55.2539,-3.87972 55.1322,-4.23958 54.9316,-4.47949 C54.6237,-4.85189 54.2244,-5.03809 53.7339,-5.03809 C53.2899,-5.03809 52.9166,-4.88949 52.614,-4.59229 C52.3114,-4.29508 52.144,-3.89762 52.1118,-3.3999 M62.3853,2.31494 C61.8517,1.64176 61.4006,0.854004 61.0317,-0.0483398 C60.6629,-0.950684 60.4785,-1.88525 60.4785,-2.85205 C60.4785,-3.70426 60.6164,-4.52067 60.8921,-5.30127 C61.2144,-6.20719 61.7121,-7.10954 62.3853,-8.0083 L63.0781,-8.0083 C62.6449,-7.26351 62.3584,-6.73177 62.2188,-6.41309 C62.0003,-5.91895 61.8285,-5.40332 61.7031,-4.86621 C61.5492,-4.19661 61.4722,-3.52344 61.4722,-2.84668 C61.4722,-1.12435 62.0075,0.596191 63.0781,2.31494 L62.3853,2.31494 M64.3496,0 L64.3496,-7.87402 L65.3916,-7.87402 L65.3916,-4.64063 L69.4844,-4.64063 L69.4844,-7.87402 L70.5264,-7.87402 L70.5264,0 L69.4844,0 L69.4844,-3.71143 L65.3916,-3.71143 L65.3916,0 L64.3496,0 M71.6211,0 L71.6211,-0.78418 L75.252,-4.95215 C74.8402,-4.93066 74.4767,-4.91992 74.1616,-4.91992 L71.8359,-4.91992 L71.8359,-5.7041 L76.498,-5.7041 L76.498,-5.06494 L73.4097,-1.44482 L72.8135,-0.78418 C73.2467,-0.816406 73.6532,-0.83252 74.0327,-0.83252 L76.6699,-0.83252 L76.6699,0 L71.6211,0 M78.2651,2.31494 L77.5723,2.31494 C78.6429,0.596191 79.1782,-1.12435 79.1782,-2.84668 C79.1782,-3.51986 79.1012,-4.18766 78.9473,-4.8501 C78.8255,-5.38721 78.6554,-5.90283 78.437,-6.39697 C78.2974,-6.71924 78.0091,-7.25635 77.5723,-8.0083 L78.2651,-8.0083 C78.9383,-7.10954 79.436,-6.20719 79.7583,-5.30127 C80.034,-4.52067 80.1719,-3.70426 80.1719,-2.85205 C80.1719,-1.88525 79.9866,-0.950684 79.616,-0.0483398 C79.2454,0.854004 78.7951,1.64176 78.2651,2.31494 "/>
</g>

<g fill="#212121" fill-opacity="1" stroke="#212121" stroke-opacity="1" stroke-width="2.02326" stroke-linecap="butt" stroke-linejoin="round" transform="matrix(0.75,0,0,0.75,0,0)"
font-family=".AppleSystemUIFont" font-size="13" font-weight="400" font-style="normal" 
>
<polyline fill="none" vector-effect="none" points="28.0335,87.1043 28.0335,9.01079 " />
<polyline fill="none" vector-effect="none" points="28.0335,87.1043 29.1335,87.1043 " />
<polyline fill="none" vector-effect="none" points="28.0335,67.581 29.1335,67.581 " />
<polyline fill="none" vector-effect="none" points="28.0335,48.0576 29.1335,48.0576 " />
<polyline fill="none" vector-effect="none" points="28.0335,28.5342 29.1335,28.5342 " />
<polyline fill="none" vector-effect="none" points="28.0335,9.01079 29.1335,9.01079 " />
</g>

<g fill="#212121" fill-opacity="1" stroke="none" transform="matrix(0.75,0,0,0.75,12.6566,67.9533)"
font-family=".AppleSystemUIFont" font-size="13" font-weight="400" font-style="normal" 
>
<path vector-effect="none" fill-rule="evenodd" d="M0.317383,-2.14844 L0.317383,-3.03223 L3.01758,-3.03223 L3.01758,-2.14844 L0.317383,-2.14844 M7.05371,0 L6.1748,0 L6.1748,-5.60059 C5.96322,-5.39876 5.68571,-5.19694 5.34229,-4.99512 C4.99886,-4.79329 4.69043,-4.64193 4.41699,-4.54102 L4.41699,-5.39063 C4.90853,-5.62174 5.33822,-5.90169 5.70605,-6.23047 C6.07389,-6.55924 6.33431,-6.87826 6.4873,-7.1875 L7.05371,-7.1875 L7.05371,0"/>
</g>

<g fill="#212121" fill-opacity="1" stroke="none" transform="matrix(0.75,0,0,0.75,14.9066,53.3107)"
font-family=".AppleSystemUIFont" font-size="13" font-weight="400" font-style="normal" 
>
<path vector-effect="none" fill-rule="evenodd" d="M0.415039,-3.53027 C0.415039,-4.37663 0.502116,-5.05778 0.67627,-5.57373 C0.850423,-6.08968 1.10921,-6.48763 1.45264,-6.76758 C1.79606,-7.04753 2.22819,-7.1875 2.74902,-7.1875 C3.13314,-7.1875 3.47005,-7.11019 3.75977,-6.95557 C4.04948,-6.80094 4.28874,-6.57796 4.47754,-6.28662 C4.66634,-5.99528 4.81445,-5.64046 4.92188,-5.22217 C5.0293,-4.80387 5.08301,-4.23991 5.08301,-3.53027 C5.08301,-2.69043 4.99674,-2.01253 4.82422,-1.49658 C4.65169,-0.980632 4.39372,-0.581868 4.05029,-0.300293 C3.70687,-0.0187174 3.27311,0.12207 2.74902,0.12207 C2.05892,0.12207 1.51693,-0.125326 1.12305,-0.620117 C0.651042,-1.21582 0.415039,-2.18587 0.415039,-3.53027 M1.31836,-3.53027 C1.31836,-2.35514 1.45589,-1.57308 1.73096,-1.18408 C2.00602,-0.795085 2.34538,-0.600586 2.74902,-0.600586 C3.15267,-0.600586 3.49202,-0.795898 3.76709,-1.18652 C4.04215,-1.57715 4.17969,-2.3584 4.17969,-3.53027 C4.17969,-4.70866 4.04215,-5.49154 3.76709,-5.87891 C3.49202,-6.26628 3.14941,-6.45996 2.73926,-6.45996 C2.33561,-6.45996 2.01335,-6.28906 1.77246,-5.94727 C1.46973,-5.51107 1.31836,-4.7054 1.31836,-3.53027 "/>
</g>

<g fill="#212121" fill-opacity="1" stroke="none" transform="matrix(0.75,0,0,0.75,14.9066,38.6682)"
font-family=".AppleSystemUIFont" font-size="13" font-weight="400" font-style="normal" 
>
<path vector-effect="none" fill-rule="evenodd" d="M3.72559,0 L2.84668,0 L2.84668,-5.60059 C2.63509,-5.39876 2.35758,-5.19694 2.01416,-4.99512 C1.67074,-4.79329 1.3623,-4.64193 1.08887,-4.54102 L1.08887,-5.39063 C1.5804,-5.62174 2.01009,-5.90169 2.37793,-6.23047 C2.74577,-6.55924 3.00618,-6.87826 3.15918,-7.1875 L3.72559,-7.1875 L3.72559,0"/>
</g>

<g fill="#212121" fill-opacity="1" stroke="none" transform="matrix(0.75,0,0,0.75,14.9066,24.0256)"
font-family=".AppleSystemUIFont" font-size="13" font-weight="400" font-style="normal" 
>
<path vector-effect="none" fill-rule="evenodd" d="M5.03418,-0.844727 L5.03418,0 L0.302734,0 C0.296224,-0.211589 0.330404,-0.415039 0.405273,-0.610352 C0.525716,-0.932617 0.718587,-1.25 0.983887,-1.5625 C1.24919,-1.875 1.63249,-2.23633 2.13379,-2.64648 C2.91178,-3.28451 3.4375,-3.78988 3.71094,-4.1626 C3.98438,-4.53532 4.12109,-4.8877 4.12109,-5.21973 C4.12109,-5.56803 3.99658,-5.86182 3.74756,-6.10107 C3.49854,-6.34033 3.17383,-6.45996 2.77344,-6.45996 C2.35026,-6.45996 2.01172,-6.33301 1.75781,-6.0791 C1.50391,-5.8252 1.37533,-5.47363 1.37207,-5.02441 L0.46875,-5.11719 C0.530599,-5.79102 0.763346,-6.30452 1.16699,-6.65771 C1.57064,-7.0109 2.11263,-7.1875 2.79297,-7.1875 C3.47982,-7.1875 4.02344,-6.99707 4.42383,-6.61621 C4.82422,-6.23535 5.02441,-5.76335 5.02441,-5.2002 C5.02441,-4.91374 4.96582,-4.63216 4.84863,-4.35547 C4.73145,-4.07878 4.53695,-3.78743 4.26514,-3.48145 C3.99333,-3.17546 3.54167,-2.75553 2.91016,-2.22168 C2.38281,-1.77897 2.04427,-1.47868 1.89453,-1.3208 C1.74479,-1.16292 1.62109,-1.00423 1.52344,-0.844727 L5.03418,-0.844727"/>
</g>

<g fill="#212121" fill-opacity="1" stroke="none" transform="matrix(0.75,0,0,0.75,14.9066,9.3831)"
font-family=".AppleSystemUIFont" font-size="13" font-weight="400" font-style="normal" 
>
<path vector-effect="none" fill-rule="evenodd" d="M0.419922,-1.88965 L1.29883,-2.00684 C1.39974,-1.50879 1.57145,-1.1499 1.81396,-0.930176 C2.05648,-0.710449 2.35189,-0.600586 2.7002,-0.600586 C3.11361,-0.600586 3.46273,-0.743815 3.74756,-1.03027 C4.03239,-1.31673 4.1748,-1.67155 4.1748,-2.09473 C4.1748,-2.49837 4.04297,-2.83122 3.7793,-3.09326 C3.51563,-3.35531 3.18034,-3.48633 2.77344,-3.48633 C2.60742,-3.48633 2.40072,-3.45378 2.15332,-3.38867 L2.25098,-4.16016 C2.30957,-4.15365 2.35677,-4.15039 2.39258,-4.15039 C2.76693,-4.15039 3.10384,-4.24805 3.40332,-4.44336 C3.7028,-4.63867 3.85254,-4.93978 3.85254,-5.34668 C3.85254,-5.66895 3.74349,-5.93587 3.52539,-6.14746 C3.30729,-6.35905 3.02572,-6.46484 2.68066,-6.46484 C2.33887,-6.46484 2.05404,-6.35742 1.82617,-6.14258 C1.59831,-5.92773 1.45182,-5.60547 1.38672,-5.17578 L0.507813,-5.33203 C0.615234,-5.92122 0.859375,-6.37777 1.24023,-6.70166 C1.62109,-7.02555 2.09473,-7.1875 2.66113,-7.1875 C3.05176,-7.1875 3.41146,-7.10368 3.74023,-6.93604 C4.06901,-6.76839 4.32048,-6.53971 4.49463,-6.25 C4.66878,-5.96029 4.75586,-5.65267 4.75586,-5.32715 C4.75586,-5.0179 4.67285,-4.73633 4.50684,-4.48242 C4.34082,-4.22852 4.09505,-4.02669 3.76953,-3.87695 C4.19271,-3.7793 4.52148,-3.57666 4.75586,-3.26904 C4.99023,-2.96143 5.10742,-2.5765 5.10742,-2.11426 C5.10742,-1.48926 4.87956,-0.959473 4.42383,-0.524902 C3.9681,-0.090332 3.39193,0.126953 2.69531,0.126953 C2.06706,0.126953 1.54541,-0.0602214 1.13037,-0.43457 C0.715332,-0.808919 0.478516,-1.29395 0.419922,-1.88965 "/>
</g>

<g fill="#000000" fill-opacity="1" stroke="none" transform="matrix(0.75,0,0,0.75,0,0)"
font-family=".AppleSystemUIFont" font-size="13" font-weight="400" font-style="normal" 
>
<circle cx="138.166" cy="67.581" r="3.01609"/>
<circle cx="135.663" cy="73.0119" r="3.01609"/>
<circle cx="133.16" cy="72.7281" r="3.01609"/>
<circle cx="130.656" cy="69.0352" r="3.01609"/>
<circle cx="128.153" cy="68.5306" r="3.01609"/>
<circle cx="125.651" cy="68.2942" r="3.01609"/>
<circle cx="123.148" cy="61.5776" r="3.01609"/>
<circle cx="120.645" cy="64.6869" r="3.01609"/>
<circle cx="118.141" cy="66.9656" r="3.01609"/>
<circle cx="115.638" cy="63.1399" r="3.01609"/>
<circle cx="113.136" cy="69.0577" r="3.01609"/>
<circle cx="110.633" cy="59.1584" r="3.01609"/>
<circle cx="108.13" cy="57.9577" r="3.01609"/>
<circle cx="105.626" cy="57.8686" r="3.01609"/>
<circle cx="103.124" cy="55.0801" r="3.01609"/>
<circle cx="100.621" cy="58.5699" r="3.01609"/>
<circle cx="98.1176" cy="54.9846" r="3.01609"/>
<circle cx="95.6146" cy="52.2972" r="3.01609"/>
<circle cx="93.1115" cy="55.5683" r="3.01609"/>
<circle cx="90.6085" cy="53.3049" r="3.01609"/>
<circle cx="88.1055" cy="51.299" r="3.01609"/>
<circle cx="85.6026" cy="46.0957" r="3.01609"/>
<circle cx="83.0996" cy="43.3137" r="3.01609"/>
<circle cx="80.5965" cy="43.1103" r="3.01609"/>
<circle cx="78.0935" cy="40.8619" r="3.01609"/>
<circle cx="75.5906" cy="41.5474" r="3.01609"/>
<circle cx="73.0876" cy="40.5402" r="3.01609"/>
<circle cx="70.5846" cy="39.7275" r="3.01609"/>
<circle cx="68.0815" cy="37.1272" r="3.01609"/>
<circle cx="65.5785" cy="37.1807" r="3.01609"/>
<circle cx="63.0756" cy="33.8362" r="3.01609"/>
<circle cx="60.5726" cy="31.0323" r="3.01609"/>
<circle cx="58.0696" cy="30.3548" r="3.01609"/>
<circle cx="55.5665" cy="27.2995" r="3.01609"/>
<circle cx="53.0635" cy="32.6351" r="3.01609"/>
<circle cx="50.5606" cy="29.0128" r="3.01609"/>
<circle cx="48.0576" cy="28.3363" r="3.01609"/>
<circle cx="45.5546" cy="23.7179" r="3.01609"/>
<circle cx="43.0515" cy="17.6718" r="3.01609"/>
<circle cx="40.5485" cy="21.3234" r="3.01609"/>
<circle cx="38.0456" cy="18.6062" r="3.01609"/>
<circle cx="35.5426" cy="23.2398" r="3.01609"/>
<circle cx="33.0397" cy="15.5676" r="3.01609"/>
<circle cx="30.5365" cy="15.0815" r="3.01609"/>
<circle cx="28.0335" cy="18.5237" r="3.01609"/>
</g>

<g fill="#0000ff" fill-opacity="0.701961" stroke="#0000ff" stroke-opacity="0.701961" stroke-dasharray="8,8" stroke-dashoffset="0" stroke-width="2.02326" stroke-linecap="butt" stroke-linejoin="round" transform="matrix(0.75,0,0,0.75,0,0)"
font-family=".AppleSystemUIFont" font-size="13" font-weight="400" font-style="normal" 
>
<polyline fill="none" vector-effect="none" points="138.166,87.1043 138.166,9.01079 " />
</g>
</g>
</svg>
